<svg 
 xmlns="http://www.w3.org/2000/svg"
 xmlns:xlink="http://www.w3.org/1999/xlink"
 width="20px" height="20px">
<defs>
<filter id="Filter_0">
    <feFlood flood-color="rgb(255, 255, 255)" flood-opacity="1" result="floodOut" />
    <feComposite operator="atop" in="floodOut" in2="SourceGraphic" result="compOut" />
    <feBlend mode="normal" in="compOut" in2="SourceGraphic" />
</filter>

</defs>
<g filter="url(#Filter_0)">
<path fill-rule="evenodd"  fill="rgb(255, 255, 255)"
 d="M19.799,17.502 L19.799,18.752 C19.799,19.443 19.245,20.002 18.561,20.002 L17.324,20.002 L17.324,20.002 L2.473,20.002 C2.473,20.002 2.473,20.002 2.473,20.002 L1.235,20.002 C0.552,20.002 -0.002,19.443 -0.002,18.752 L-0.002,15.001 C-0.002,15.001 -0.002,15.001 -0.002,15.001 L-0.002,6.249 L-0.002,6.249 L-0.002,1.248 C-0.002,0.557 0.552,-0.002 1.235,-0.002 L6.186,-0.002 C6.186,-0.002 6.186,-0.002 6.186,-0.002 L13.611,-0.002 C13.611,-0.002 13.611,-0.002 13.611,-0.002 L18.561,-0.002 C19.245,-0.002 19.799,0.557 19.799,1.248 L19.799,2.498 C19.799,2.498 19.799,2.498 19.799,2.498 L19.799,17.502 C19.799,17.502 19.799,17.502 19.799,17.502 ZM9.899,7.499 C7.620,7.499 7.423,10.000 7.423,10.000 C7.423,10.000 7.352,12.501 9.899,12.501 C12.445,12.501 12.374,10.000 12.374,10.000 C12.374,10.000 12.178,7.499 9.899,7.499 ZM17.324,2.498 L13.611,2.498 L13.611,6.249 L17.324,6.249 L17.324,2.498 ZM17.324,10.000 C17.324,10.000 17.324,10.000 17.324,10.000 L17.324,8.750 L14.849,8.750 L14.849,8.750 L14.674,8.750 C14.777,9.151 14.849,9.565 14.849,10.000 L14.849,10.000 L14.849,10.000 L14.849,10.000 C14.849,12.762 12.632,15.001 9.899,15.001 C7.164,15.001 4.948,12.762 4.948,10.000 C4.948,9.565 5.020,9.151 5.123,8.750 L4.948,8.750 L4.948,8.750 L2.473,8.750 L2.473,17.502 L4.948,17.502 L6.186,17.502 L6.186,17.502 L13.611,17.502 L13.611,17.502 L17.324,17.502 L17.324,13.751 L17.324,13.751 L17.324,10.000 Z"/>
</g>
</svg>