<svg 
 xmlns="http://www.w3.org/2000/svg"
 xmlns:xlink="http://www.w3.org/1999/xlink"
 width="92px" height="93px">
<path fill-rule="evenodd"  fill="rgb(150, 150, 150)"
 d="M88.508,41.938 L41.929,88.531 C37.711,92.750 30.954,93.204 26.210,89.587 L21.578,86.056 C21.570,86.061 21.562,86.064 21.554,86.069 C21.308,86.218 21.058,86.355 20.805,86.483 C20.753,86.509 20.701,86.535 20.649,86.560 C20.410,86.676 20.168,86.786 19.922,86.885 C19.856,86.911 19.789,86.934 19.722,86.960 C19.531,87.032 19.338,87.100 19.143,87.162 C19.043,87.194 18.943,87.226 18.843,87.255 C18.646,87.311 18.448,87.362 18.249,87.408 C18.136,87.434 18.023,87.459 17.908,87.482 C17.701,87.523 17.493,87.559 17.284,87.589 C17.161,87.606 17.038,87.620 16.914,87.633 C16.769,87.649 16.624,87.661 16.479,87.671 C16.304,87.684 16.129,87.692 15.953,87.696 C15.806,87.699 15.658,87.701 15.511,87.699 C15.392,87.697 15.274,87.696 15.155,87.690 C14.939,87.680 14.724,87.663 14.509,87.641 C14.401,87.630 14.293,87.617 14.186,87.603 C13.959,87.573 13.732,87.538 13.507,87.495 C13.429,87.480 13.352,87.461 13.275,87.444 C13.074,87.401 12.874,87.352 12.674,87.298 C12.607,87.280 12.540,87.263 12.473,87.244 C12.228,87.173 11.986,87.090 11.746,87.002 C11.681,86.978 11.617,86.954 11.553,86.929 C11.307,86.834 11.063,86.731 10.823,86.617 C10.780,86.597 10.737,86.575 10.694,86.554 C10.453,86.436 10.215,86.311 9.981,86.176 C9.963,86.165 9.944,86.156 9.926,86.145 C9.682,86.002 9.444,85.846 9.209,85.683 C9.166,85.654 9.124,85.625 9.081,85.595 C8.854,85.432 8.631,85.261 8.413,85.080 C8.375,85.047 8.337,85.014 8.299,84.981 C8.075,84.790 7.855,84.591 7.643,84.379 C7.431,84.167 7.232,83.946 7.040,83.722 C7.007,83.684 6.974,83.646 6.942,83.608 C6.761,83.390 6.590,83.167 6.427,82.940 C6.397,82.897 6.368,82.854 6.338,82.812 C6.175,82.577 6.020,82.339 5.877,82.095 C5.866,82.076 5.857,82.058 5.846,82.039 C5.711,81.806 5.586,81.567 5.468,81.326 C5.447,81.283 5.425,81.241 5.405,81.198 C5.292,80.957 5.188,80.714 5.093,80.468 C5.068,80.403 5.044,80.339 5.020,80.274 C4.932,80.034 4.850,79.792 4.778,79.547 C4.759,79.480 4.742,79.412 4.724,79.345 C4.670,79.146 4.621,78.946 4.578,78.745 C4.561,78.667 4.542,78.591 4.527,78.513 C4.484,78.288 4.450,78.061 4.420,77.834 C4.406,77.726 4.392,77.619 4.381,77.511 C4.359,77.295 4.342,77.080 4.332,76.864 C4.327,76.745 4.326,76.627 4.324,76.508 C4.322,76.361 4.323,76.213 4.326,76.065 C4.330,75.890 4.339,75.715 4.351,75.540 C4.361,75.395 4.373,75.250 4.389,75.105 C4.403,74.981 4.416,74.857 4.433,74.734 C4.463,74.525 4.499,74.317 4.540,74.110 C4.563,73.996 4.588,73.882 4.615,73.769 C4.661,73.570 4.711,73.372 4.768,73.175 C4.797,73.075 4.828,72.975 4.861,72.875 C4.923,72.680 4.990,72.487 5.062,72.296 C5.088,72.229 5.111,72.162 5.138,72.096 C5.236,71.850 5.346,71.608 5.462,71.369 C5.487,71.317 5.513,71.264 5.539,71.213 C5.667,70.959 5.804,70.709 5.953,70.463 C5.957,70.456 5.961,70.447 5.966,70.439 L2.436,65.806 C-1.180,61.061 -0.726,54.301 3.491,50.082 L50.070,3.489 C54.288,-0.730 61.046,-1.184 65.789,2.433 L70.421,5.965 C70.428,5.960 70.436,5.957 70.444,5.952 C70.690,5.803 70.942,5.665 71.197,5.536 C71.247,5.511 71.297,5.486 71.348,5.461 C71.588,5.344 71.832,5.234 72.079,5.135 C72.143,5.110 72.208,5.087 72.273,5.062 C72.467,4.988 72.663,4.920 72.860,4.857 C72.955,4.827 73.051,4.796 73.147,4.768 C73.347,4.710 73.549,4.659 73.752,4.612 C73.864,4.586 73.976,4.561 74.089,4.539 C74.297,4.497 74.507,4.461 74.717,4.431 C74.839,4.414 74.960,4.401 75.083,4.387 C75.230,4.372 75.377,4.359 75.525,4.349 C75.698,4.337 75.870,4.328 76.042,4.324 C76.192,4.321 76.341,4.319 76.491,4.322 C76.608,4.323 76.725,4.325 76.843,4.330 C77.059,4.340 77.276,4.357 77.492,4.379 C77.599,4.390 77.706,4.404 77.813,4.418 C78.040,4.447 78.267,4.482 78.493,4.525 C78.571,4.540 78.647,4.559 78.724,4.576 C78.925,4.619 79.126,4.668 79.325,4.722 C79.392,4.741 79.460,4.757 79.526,4.776 C79.771,4.848 80.013,4.930 80.254,5.018 C80.318,5.042 80.382,5.066 80.446,5.091 C80.692,5.187 80.936,5.290 81.177,5.403 C81.220,5.424 81.262,5.445 81.305,5.467 C81.546,5.584 81.784,5.709 82.018,5.845 C82.036,5.855 82.055,5.864 82.073,5.875 C82.317,6.018 82.555,6.174 82.790,6.337 C82.833,6.366 82.876,6.395 82.918,6.426 C83.145,6.588 83.368,6.760 83.586,6.941 C83.624,6.973 83.662,7.006 83.700,7.039 C83.924,7.231 84.145,7.430 84.357,7.642 C84.569,7.854 84.767,8.074 84.959,8.298 C84.992,8.337 85.025,8.374 85.057,8.413 C85.238,8.630 85.410,8.853 85.572,9.081 C85.602,9.123 85.632,9.166 85.661,9.209 C85.824,9.444 85.979,9.682 86.123,9.926 C86.133,9.944 86.143,9.963 86.153,9.981 C86.289,10.215 86.414,10.453 86.531,10.694 C86.552,10.737 86.574,10.779 86.595,10.823 C86.708,11.063 86.811,11.307 86.907,11.553 C86.932,11.617 86.955,11.681 86.979,11.746 C87.067,11.986 87.149,12.229 87.221,12.473 C87.241,12.540 87.257,12.608 87.275,12.675 C87.330,12.874 87.378,13.075 87.422,13.276 C87.438,13.353 87.457,13.429 87.472,13.507 C87.516,13.733 87.550,13.960 87.580,14.188 C87.594,14.295 87.607,14.402 87.618,14.509 C87.640,14.725 87.657,14.941 87.667,15.158 C87.673,15.275 87.674,15.393 87.676,15.510 C87.678,15.660 87.677,15.809 87.673,15.959 C87.669,16.131 87.661,16.303 87.649,16.476 C87.639,16.624 87.626,16.771 87.610,16.919 C87.597,17.041 87.583,17.163 87.566,17.284 C87.536,17.495 87.500,17.704 87.459,17.913 C87.436,18.025 87.411,18.137 87.385,18.249 C87.338,18.452 87.287,18.655 87.229,18.855 C87.201,18.951 87.171,19.046 87.140,19.142 C87.077,19.339 87.009,19.535 86.935,19.729 C86.911,19.794 86.888,19.859 86.862,19.923 C86.763,20.170 86.653,20.414 86.536,20.655 C86.511,20.705 86.487,20.755 86.461,20.806 C86.333,21.061 86.195,21.312 86.046,21.559 C86.041,21.566 86.038,21.574 86.033,21.582 L89.564,26.215 C93.180,30.960 92.725,37.720 88.508,41.938 ZM63.710,5.162 C60.326,2.582 55.505,2.906 52.496,5.916 L5.917,52.509 C2.908,55.519 2.585,60.341 5.164,63.726 L8.216,67.730 L67.713,8.215 L63.710,5.162 ZM84.245,15.567 C84.243,15.379 84.235,15.190 84.218,15.001 C84.213,14.933 84.205,14.865 84.197,14.797 C84.178,14.622 84.153,14.449 84.122,14.276 C84.108,14.198 84.093,14.119 84.076,14.041 C84.043,13.881 84.003,13.723 83.960,13.565 C83.936,13.478 83.912,13.391 83.885,13.305 C83.839,13.158 83.787,13.012 83.732,12.867 C83.698,12.776 83.664,12.685 83.626,12.595 C83.568,12.456 83.503,12.321 83.436,12.185 C83.392,12.094 83.349,12.002 83.300,11.913 C83.228,11.779 83.148,11.649 83.068,11.519 C83.015,11.433 82.966,11.346 82.909,11.262 C82.816,11.123 82.714,10.989 82.611,10.855 C82.558,10.786 82.509,10.714 82.453,10.647 C82.290,10.447 82.117,10.254 81.931,10.068 C81.745,9.882 81.552,9.709 81.353,9.546 C81.285,9.490 81.213,9.441 81.144,9.388 C81.010,9.285 80.876,9.182 80.737,9.090 C80.653,9.033 80.566,8.984 80.481,8.931 C80.351,8.851 80.220,8.770 80.087,8.698 C79.997,8.650 79.905,8.607 79.814,8.562 C79.679,8.496 79.543,8.431 79.405,8.373 C79.315,8.335 79.224,8.301 79.133,8.267 C78.988,8.212 78.842,8.160 78.695,8.114 C78.609,8.087 78.522,8.062 78.435,8.038 C78.278,7.995 78.119,7.956 77.959,7.922 C77.881,7.906 77.802,7.890 77.724,7.876 C77.551,7.846 77.378,7.821 77.204,7.801 C77.136,7.794 77.068,7.786 76.999,7.780 C76.811,7.764 76.622,7.756 76.433,7.753 C76.377,7.752 76.322,7.750 76.266,7.750 C76.062,7.752 75.858,7.762 75.655,7.779 C75.612,7.783 75.570,7.784 75.528,7.788 C75.307,7.811 75.088,7.843 74.870,7.883 C74.843,7.888 74.817,7.891 74.790,7.896 C74.552,7.943 74.315,8.001 74.080,8.069 C74.073,8.071 74.066,8.073 74.059,8.075 C73.577,8.217 73.106,8.408 72.653,8.644 C72.552,8.696 72.455,8.759 72.357,8.816 C72.241,8.883 72.124,8.947 72.012,9.019 C71.884,9.103 71.760,9.196 71.636,9.287 C71.539,9.359 71.438,9.426 71.343,9.502 L71.301,9.536 C71.098,9.702 70.901,9.879 70.712,10.068 L10.068,70.730 C9.879,70.919 9.702,71.116 9.536,71.320 L9.504,71.360 C9.426,71.457 9.358,71.559 9.285,71.658 C9.195,71.781 9.103,71.903 9.021,72.029 C8.945,72.146 8.879,72.266 8.811,72.385 C8.756,72.481 8.695,72.574 8.645,72.671 C8.409,73.125 8.218,73.596 8.075,74.079 C8.074,74.083 8.073,74.088 8.072,74.092 C8.002,74.329 7.944,74.569 7.897,74.810 C7.892,74.835 7.890,74.860 7.885,74.885 C7.844,75.105 7.811,75.326 7.789,75.548 C7.785,75.589 7.784,75.630 7.780,75.671 C7.763,75.876 7.752,76.081 7.751,76.287 C7.751,76.342 7.753,76.396 7.754,76.451 C7.756,76.641 7.765,76.831 7.781,77.020 C7.787,77.088 7.795,77.155 7.802,77.223 C7.822,77.397 7.846,77.571 7.877,77.744 C7.891,77.823 7.907,77.901 7.923,77.979 C7.957,78.139 7.996,78.298 8.039,78.456 C8.063,78.543 8.087,78.629 8.114,78.715 C8.160,78.863 8.213,79.009 8.268,79.154 C8.302,79.245 8.336,79.336 8.373,79.425 C8.432,79.564 8.497,79.700 8.563,79.835 C8.608,79.926 8.651,80.018 8.699,80.108 C8.771,80.241 8.851,80.371 8.931,80.502 C8.984,80.587 9.034,80.674 9.090,80.758 C9.183,80.897 9.286,81.031 9.389,81.165 C9.442,81.234 9.490,81.306 9.546,81.374 C9.709,81.573 9.883,81.767 10.068,81.952 C10.254,82.138 10.448,82.311 10.647,82.475 C10.714,82.530 10.786,82.579 10.855,82.632 C10.989,82.735 11.123,82.838 11.262,82.931 C11.346,82.987 11.433,83.037 11.519,83.090 C11.649,83.170 11.779,83.250 11.912,83.322 C12.002,83.370 12.094,83.413 12.185,83.458 C12.320,83.524 12.456,83.590 12.595,83.648 C12.684,83.686 12.775,83.719 12.866,83.754 C13.011,83.809 13.157,83.861 13.305,83.907 C13.391,83.934 13.477,83.958 13.563,83.982 C13.721,84.025 13.881,84.065 14.040,84.098 C14.118,84.115 14.197,84.130 14.275,84.144 C14.448,84.175 14.622,84.200 14.796,84.219 C14.864,84.227 14.932,84.235 14.999,84.241 C15.189,84.257 15.378,84.265 15.568,84.267 C15.623,84.268 15.677,84.271 15.732,84.270 C15.938,84.269 16.143,84.258 16.348,84.241 C16.389,84.237 16.430,84.236 16.471,84.232 C16.693,84.210 16.914,84.177 17.133,84.137 C17.158,84.132 17.183,84.129 17.208,84.124 C17.450,84.077 17.689,84.019 17.926,83.949 C17.931,83.948 17.935,83.947 17.939,83.946 C18.422,83.803 18.894,83.613 19.347,83.376 C19.444,83.326 19.537,83.266 19.633,83.210 C19.752,83.142 19.872,83.076 19.988,83.001 C20.115,82.918 20.237,82.826 20.360,82.736 C20.459,82.663 20.561,82.595 20.657,82.517 L20.698,82.485 C20.901,82.319 21.098,82.142 21.287,81.952 L81.931,21.290 C82.120,21.101 82.297,20.904 82.463,20.702 L82.497,20.659 C82.573,20.564 82.640,20.464 82.711,20.366 C82.803,20.242 82.896,20.118 82.979,19.990 C83.052,19.877 83.116,19.761 83.183,19.645 C83.240,19.546 83.302,19.449 83.355,19.349 C83.591,18.896 83.781,18.425 83.924,17.943 C83.926,17.936 83.927,17.928 83.929,17.921 C83.998,17.687 84.055,17.450 84.102,17.211 C84.107,17.184 84.110,17.158 84.115,17.131 C84.155,16.913 84.188,16.694 84.210,16.473 C84.214,16.431 84.215,16.389 84.219,16.347 C84.236,16.143 84.247,15.939 84.248,15.735 C84.249,15.679 84.246,15.623 84.245,15.567 ZM86.835,28.295 L86.836,28.295 L83.783,24.290 L24.286,83.806 L28.290,86.858 C31.674,89.438 36.494,89.115 39.503,86.105 L86.082,39.512 C89.091,36.502 89.415,31.680 86.835,28.295 ZM68.072,27.277 C66.713,28.636 64.862,29.849 62.362,30.434 C55.794,31.971 54.045,38.709 54.028,38.777 C53.938,39.090 51.895,45.859 45.429,47.372 C39.718,48.708 37.759,55.028 37.739,55.092 C37.625,55.418 35.104,62.368 29.011,63.795 C23.647,65.049 21.757,71.040 21.738,71.100 C21.633,71.448 21.265,71.643 20.917,71.537 C20.570,71.431 20.374,71.065 20.480,70.717 C20.563,70.442 22.599,63.943 28.712,62.513 C33.987,61.280 36.368,55.014 36.485,54.696 C36.636,54.199 38.774,47.577 45.129,46.090 C50.856,44.750 52.740,38.497 52.758,38.434 C52.828,38.150 54.722,30.870 62.062,29.153 C68.621,27.618 70.234,21.029 70.249,20.962 C70.332,20.609 70.685,20.389 71.040,20.472 C71.394,20.554 71.613,20.909 71.530,21.263 C71.484,21.462 70.705,24.642 68.072,27.277 Z"/>
</svg>